<svg width="16" height="16" viewBox="0 0 16 16" fill="none" xmlns="http://www.w3.org/2000/svg">
<path fill-rule="evenodd" clip-rule="evenodd" d="M9.68294 7.5634C9.88707 7.08313 10 6.55475 10 6C10 3.79086 8.20914 2 6 2C3.79086 2 2 3.79086 2 6C2 8.20914 3.79086 10 6 10C6.55379 10 7.0813 9.88746 7.5609 9.684L8.68825 10.8113C8.74736 10.8705 8.83209 10.8961 8.91406 10.8797L10.1826 10.626C10.3576 10.591 10.5119 10.7454 10.4768 10.9204L10.2698 11.9514C10.2347 12.1263 10.3888 12.2806 10.5637 12.2458L11.5975 12.0398C11.7723 12.005 11.9264 12.1591 11.8915 12.334L11.6379 13.6036C11.6215 13.6856 11.6472 13.7703 11.7063 13.8294L11.8474 13.9705C11.9239 14.047 12.0231 14.0966 12.1302 14.1119L13.1202 14.2533C13.7802 14.3476 14.3458 13.7819 14.2516 13.122L14.1101 12.132C14.0948 12.0249 14.0452 11.9257 13.9687 11.8492L9.68294 7.5634ZM5.5 7C6.32843 7 7 6.32843 7 5.5C7 4.67157 6.32843 4 5.5 4C4.67157 4 4 4.67157 4 5.5C4 6.32843 4.67157 7 5.5 7Z" fill="#383736"/>
</svg>
