<svg width="14" height="14" viewBox="0 0 14 14" fill="none" xmlns="http://www.w3.org/2000/svg">
<path fill-rule="evenodd" clip-rule="evenodd" d="M1.7951 0.307991C1.38445 -0.102664 0.718644 -0.102664 0.30799 0.307991C-0.102664 0.718645 -0.102663 1.38445 0.307991 1.7951L5.51291 7.00002L0.30804 12.2049C-0.102614 12.6156 -0.102614 13.2814 0.30804 13.692C0.718694 14.1027 1.3845 14.1027 1.79515 13.692L7.00002 8.48714L12.2049 13.692C12.6155 14.1026 13.2813 14.1026 13.692 13.692C14.1026 13.2813 14.1026 12.6155 13.692 12.2049L8.48713 7.00002L13.692 1.79512C14.1027 1.38446 14.1027 0.71866 13.692 0.308005C13.2814 -0.102649 12.6156 -0.102649 12.2049 0.308005L7.00002 5.51291L1.7951 0.307991Z" fill="#383736"/>
</svg>
